<svg xmlns="http://www.w3.org/2000/svg" version="1.1" xmlns:xlink="http://www.w3.org/1999/xlink" xmlns:svgjs="http://svgjs.dev/svgjs" width="1000" height="1000" viewBox="0 0 1000 1000"><rect width="1000" height="1000" fill="#000000"></rect><g transform="matrix(0.7,0,0,0.7,149.57605563665675,422.92789763881177)"><svg viewBox="0 0 396 87" data-background-color="#ffffff" preserveAspectRatio="xMidYMid meet" height="219" width="1000" xmlns="http://www.w3.org/2000/svg" xmlns:xlink="http://www.w3.org/1999/xlink"><g id="tight-bounds" transform="matrix(1,0,0,1,0.24008861730862918,0.23967518537378396)"><svg viewBox="0 0 395.52 86.52077552941176" height="86.52077552941176" width="395.52"><g><svg viewBox="0 0 395.52 86.52077552941176" height="86.52077552941176" width="395.52"><g><svg viewBox="0 0 395.52 86.52077552941176" height="86.52077552941176" width="395.52"><g id="textblocktransform"><svg viewBox="0 0 395.52 86.52077552941176" height="86.52077552941176" width="395.52" id="textblock"><g><svg viewBox="0 0 395.52 86.52077552941176" height="86.52077552941176" width="395.52"><path d="M394.594 18.557C392.735 9.576 387.435 7.08 387.435 7.08 371.165-2.171 350.86-0.177 332.619 1.152 300.414 1.206 268.339 3.182 236.208 4.242 168.767 4.403 100.749 1.745 33.643 8.301 27.339 10.313-6.54 8.696 1.121 19.707 3.129 24.287 10.456 29.37 10.232 33.573 11.236 34.309 12.631 32.621 13.226 33.681 15.309 36.537 18.711 35.19 21.501 36.878 17.614 41.386 20.403 45.14 23.062 49.074 18.377 50.098 12.371 49.613 9.675 53.008 9.396 55.468 7.89 55.001 6.235 54.893 5.026 54.822 2.59 55.091 2.999 55.863 4.394 58.504-1.594 60.031 2.162 62.617-0.422 65.419 3.948 67.844 3.353 70.879 3.278 71.49 3.687 72.011 4.338 72.155 7.22 72.927 3.018 74.436 3.464 76.07 33.029 87.242 65.104 79.519 95.394 84.656 103.259 81.064 97.346 85.931 100.489 85.177 102.943 84.297 104.728 87.943 107.499 85.877 107.927 85.285 107.276 83.884 108.8 84.153 109.6 84.297 110.307 84.261 110.418 83.435 110.586 82.195 109.117 82.968 108.726 82.321 112.947 79.052 111.906 86.829 115.866 86.506 115.68 85.554 114.528 84.189 116.889 84.369 119.232 83.003 119.306 81.872 121.389 84.943 121.463 85.608 121.835 86.075 122.43 86.398 128.938 83.057 135.409 87.584 142.233 86.075 146.417 84.422 150.433 86.973 154.672 86.344 156.16 85.841 157.666 84.943 159.098 86.452 176.632 86.775 195.319 85.428 211.943 86.506 256.364 84.494 303.835 87.332 350.674 84.674 361.719 83.65 373.192 82.195 383.958 81.028 383.958 81.028 392.679 77.831 392.679 63.461S394.538 50.888 394.817 39.446C395.096 28.005 396.398 27.538 394.538 18.557Z" opacity="1" fill="#ffffff" data-fill-palette-color="tertiary"></path><g transform="matrix(1,0,0,1,55.76832,26.230666666666668)"><svg width="283.98335999999995" viewBox="2.5 -35.900001525878906 305.9800109863281 36.70000076293945" height="34.05944219607842" data-palette-color="#ffffff"><path d="M2.5 0L2.5-3.3Q3.65-3.35 4.42-3.6 5.2-3.85 5.63-4.75 6.05-5.65 6.05-7.65L6.05-7.65 6.05-26.8Q6.05-28.15 6.13-29.4 6.2-30.65 6.25-31.3L6.25-31.3Q5.45-31.25 4.25-31.23 3.05-31.2 2.5-31.15L2.5-31.15 2.5-35Q6.05-35.05 9.6-35.05 13.15-35.05 16.7-35.1L16.7-35.1Q21.1-35.15 24.38-33.95 27.65-32.75 29.43-30.25 31.2-27.75 31.1-23.75L31.1-23.75Q31.05-21.75 30.15-19.83 29.25-17.9 27.5-16.32 25.75-14.75 23.1-13.75 20.45-12.75 16.9-12.65L16.9-12.65Q15.8-12.6 14.98-12.6 14.15-12.6 13.3-12.65L13.3-12.65 13.3-8.25Q13.3-6.85 13.25-5.6 13.2-4.35 13.1-3.7L13.1-3.7Q13.65-3.75 14.5-3.78 15.35-3.8 16.18-3.83 17-3.85 17.35-3.85L17.35-3.85 17.35 0 2.5 0ZM13.3-27.65L13.3-16.4Q13.85-16.35 14.4-16.3 14.95-16.25 15.55-16.25L15.55-16.25Q18.3-16.25 20.03-17.18 21.75-18.1 22.55-19.88 23.35-21.65 23.35-24.2L23.35-24.2Q23.35-26.7 22.68-28.2 22-29.7 20.95-30.43 19.9-31.15 18.75-31.38 17.6-31.6 16.65-31.6L16.65-31.6Q15.6-31.6 14.85-31.35 14.1-31.1 13.7-30.25 13.3-29.4 13.3-27.65L13.3-27.65ZM48.5-35L48.5-31.7Q47.4-31.65 46.6-31.4 45.8-31.15 45.37-30.28 44.95-29.4 44.95-27.35L44.95-27.35 44.95-8.2Q44.95-6.85 44.9-5.6 44.85-4.35 44.75-3.7L44.75-3.7Q45.55-3.8 46.77-3.83 48-3.85 48.5-3.85L48.5-3.85 48.5 0 34.15 0 34.15-3.3Q35.3-3.35 36.07-3.6 36.85-3.85 37.27-4.75 37.7-5.65 37.7-7.65L37.7-7.65 37.7-26.8Q37.7-28.15 37.77-29.4 37.85-30.65 37.9-31.3L37.9-31.3Q37.1-31.25 35.9-31.23 34.7-31.2 34.15-31.15L34.15-31.15 34.15-35 48.5-35ZM78.75 0L53 0 53-3.75Q56.75-9.45 60.47-15.15 64.2-20.85 67.95-26.55L67.95-26.55Q68.9-28 69.7-29.18 70.5-30.35 71.45-31.45L71.45-31.45 62.9-31.75Q60.15-31.85 58.35-30.13 56.55-28.4 56.55-24.35L56.55-24.35 53.25-24.35 53.55-35 79-35 79-31.25 64.59-9.45Q63.55-7.9 62.5-6.38 61.45-4.85 60.3-3.5L60.3-3.5 69.45-3.3Q72.25-3.25 74-4.93 75.75-6.6 75.75-10.7L75.75-10.7 79.05-10.7 78.75 0ZM108.94 0L83.19 0 83.19-3.75Q86.94-9.45 90.67-15.15 94.39-20.85 98.14-26.55L98.14-26.55Q99.09-28 99.89-29.18 100.69-30.35 101.64-31.45L101.64-31.45 93.09-31.75Q90.34-31.85 88.54-30.13 86.74-28.4 86.74-24.35L86.74-24.35 83.44-24.35 83.74-35 109.19-35 109.19-31.25 94.79-9.45Q93.74-7.9 92.69-6.38 91.64-4.85 90.49-3.5L90.49-3.5 99.64-3.3Q102.44-3.25 104.19-4.93 105.94-6.6 105.94-10.7L105.94-10.7 109.24-10.7 108.94 0ZM122.29 0L111.59 0 111.59-3.45Q112.99-3.45 113.84-4.25 114.69-5.05 115.27-6.35 115.84-7.65 116.39-9.15L116.39-9.15 126.14-35.9 129.64-35.9 140.29-8.65Q140.59-7.9 141.09-6.38 141.59-4.85 141.69-3.7L141.69-3.7Q142.54-3.8 143.32-3.83 144.09-3.85 144.59-3.85L144.59-3.85 144.59 0 131.14 0 131.14-3.3Q132.54-3.3 133.07-3.88 133.59-4.45 133.54-5.45 133.49-6.45 132.99-7.7L132.99-7.7 131.99-10.45 121.14-10.25 120.34-7.9Q120.09-7.25 119.62-5.98 119.14-4.7 118.74-3.85L118.74-3.85Q119.54-3.95 120.67-3.98 121.79-4 122.29-4L122.29-4 122.29 0ZM124.64-20.5L122.39-14 130.74-14 128.44-20.25Q127.79-22.05 127.29-23.88 126.79-25.7 126.54-27.1L126.54-27.1 126.49-27.1Q126.29-26.25 125.89-24.55 125.49-22.85 124.64-20.5L124.64-20.5ZM170.79-23.8L167.49-23.8Q167.04-26.6 165.89-28.48 164.74-30.35 162.96-31.3 161.19-32.25 158.84-32.2L158.84-32.2Q156.69-32.2 155.06-31 153.44-29.8 153.44-27.9L153.44-27.9Q153.44-26.35 154.31-25.2 155.19-24.05 156.99-23.05 158.79-22.05 161.54-20.9L161.54-20.9Q163.44-20.15 165.44-19.15 167.44-18.15 169.14-16.78 170.84-15.4 171.89-13.58 172.94-11.75 172.94-9.3L172.94-9.3Q172.94-6.35 171.34-4.05 169.74-1.75 166.86-0.48 163.99 0.8 160.14 0.8L160.14 0.8Q158.14 0.8 155.81 0.18 153.49-0.45 151.44-1.65L151.44-1.65 151.59 0.45 147.74 0.45 147.74-11.25 151.04-11.25Q151.74-7.05 154.26-4.93 156.79-2.8 160.29-2.8L160.29-2.8Q162.09-2.8 163.44-3.45 164.79-4.1 165.54-5.18 166.29-6.25 166.29-7.5L166.29-7.5Q166.29-9.25 165.06-10.4 163.84-11.55 162.01-12.35 160.19-13.15 158.29-13.9L158.29-13.9Q155.89-14.9 153.81-16.03 151.74-17.15 150.19-18.6 148.64-20.05 147.79-21.93 146.94-23.8 146.94-26.25L146.94-26.25Q146.94-27.8 147.54-29.48 148.14-31.15 149.49-32.58 150.84-34 153.09-34.9 155.34-35.8 158.64-35.8L158.64-35.8Q160.64-35.8 163.01-35.2 165.39-34.6 167.09-33.4L167.09-33.4 166.89-35.45 170.79-35.45 170.79-23.8ZM206.34-23.7L203.04-23.7Q203.04-26.4 202.29-28.18 201.54-29.95 200.16-30.83 198.79-31.7 196.89-31.65L196.89-31.65 194.49-31.65 194.49-8.2Q194.49-6.85 194.44-5.6 194.39-4.35 194.29-3.7L194.29-3.7Q195.14-3.8 196.46-3.83 197.79-3.85 198.29-3.85L198.29-3.85 198.29 0 183.69 0 183.69-3.3Q184.84-3.35 185.61-3.6 186.39-3.85 186.81-4.75 187.24-5.65 187.24-7.65L187.24-7.65 187.24-31.6 184.94-31.6Q182.09-31.55 180.44-29.65 178.79-27.75 178.79-23.7L178.79-23.7 175.49-23.7 175.74-35 206.04-35 206.34-23.7ZM226.33 0.8L226.33 0.8Q221.58 0.8 218.26-0.8 214.93-2.4 212.88-5.08 210.83-7.75 209.88-11 208.93-14.25 208.93-17.5L208.93-17.5Q208.93-20.65 210.01-23.88 211.08-27.1 213.26-29.8 215.43-32.5 218.73-34.15 222.03-35.8 226.48-35.8L226.48-35.8Q231.03-35.8 234.33-34.15 237.63-32.5 239.73-29.78 241.83-27.05 242.86-23.85 243.88-20.65 243.88-17.5L243.88-17.5Q243.88-14.4 242.81-11.2 241.73-8 239.56-5.28 237.38-2.55 234.08-0.88 230.78 0.8 226.33 0.8ZM226.88-2.85L226.88-2.85Q229.48-2.85 231.23-4.13 232.98-5.4 234.03-7.45 235.08-9.5 235.53-11.93 235.98-14.35 235.98-16.65L235.98-16.65Q235.98-20.1 235.38-22.95 234.78-25.8 233.53-27.88 232.28-29.95 230.36-31.08 228.43-32.2 225.83-32.15L225.83-32.15Q223.28-32.1 221.53-30.78 219.78-29.45 218.73-27.38 217.68-25.3 217.23-22.85 216.78-20.4 216.78-18.1L216.78-18.1Q216.78-15.75 217.31-13.1 217.83-10.45 218.98-8.1 220.13-5.75 222.08-4.3 224.03-2.85 226.88-2.85ZM262.38 0L247.53 0 247.53-3.3Q248.68-3.35 249.46-3.6 250.23-3.85 250.66-4.75 251.08-5.65 251.08-7.65L251.08-7.65 251.08-26.8Q251.08-28.15 251.16-29.4 251.23-30.65 251.28-31.3L251.28-31.3Q250.48-31.25 249.28-31.23 248.08-31.2 247.53-31.15L247.53-31.15 247.53-35Q251.08-35.05 254.63-35.05 258.18-35.05 261.73-35.1L261.73-35.1Q266.13-35.15 269.38-34.1 272.63-33.05 274.38-30.7 276.13-28.35 276.03-24.35L276.03-24.35Q275.98-22.25 275.01-20.35 274.03-18.45 272.11-17 270.18-15.55 267.23-14.7L267.23-14.7Q268.18-14.3 269.11-13.4 270.03-12.5 270.68-11.5L270.68-11.5 273.03-8Q274.13-6.3 274.98-5.3 275.83-4.3 276.68-3.83 277.53-3.35 278.63-3.3L278.63-3.3 278.63 0 270.38 0Q269.48-0.65 268.61-1.88 267.73-3.1 266.73-4.7L266.73-4.7 263.03-10.7Q262.38-11.7 261.91-12.4 261.43-13.1 260.93-13.6L260.93-13.6Q260.13-13.6 259.58-13.6 259.03-13.6 258.33-13.6L258.33-13.6 258.33-8.25Q258.33-6.85 258.28-5.6 258.23-4.35 258.13-3.7L258.13-3.7Q258.68-3.75 259.53-3.78 260.38-3.8 261.21-3.83 262.03-3.85 262.38-3.85L262.38-3.85 262.38 0ZM260.73-17.2L260.73-17.2Q263.53-17.2 265.23-18.03 266.93-18.85 267.71-20.53 268.48-22.2 268.48-24.75L268.48-24.75Q268.48-27.15 267.73-28.53 266.98-29.9 265.86-30.58 264.73-31.25 263.58-31.43 262.43-31.6 261.68-31.6L261.68-31.6Q260.63-31.6 259.88-31.35 259.13-31.1 258.73-30.25 258.33-29.4 258.33-27.65L258.33-27.65 258.33-17.4Q258.88-17.35 259.48-17.28 260.08-17.2 260.73-17.2ZM302.13-12.05L298.83-12.05Q298.83-14.15 298.18-15.08 297.53-16 296.4-16.25 295.28-16.5 293.93-16.45L293.93-16.45 292.63-16.4 292.63-8.2Q292.63-6.85 292.58-5.65 292.53-4.45 292.43-3.8L292.43-3.8 299.13-3.8Q300.63-3.8 302.03-4.48 303.43-5.15 304.33-6.73 305.23-8.3 305.23-11L305.23-11 308.48-11 308.23 0 281.83 0 281.83-3.3Q282.98-3.35 283.75-3.6 284.53-3.85 284.95-4.75 285.38-5.65 285.38-7.65L285.38-7.65 285.38-26.8Q285.38-28.15 285.45-29.4 285.53-30.65 285.58-31.3L285.58-31.3Q284.78-31.25 283.58-31.23 282.38-31.2 281.83-31.15L281.83-31.15 281.83-35 306.83-35 307.13-25.3 303.83-25.3Q303.83-28.05 302.88-29.45 301.93-30.85 300.53-31.33 299.13-31.8 297.78-31.75L297.78-31.75 295.98-31.7Q294.93-31.7 294.18-31.43 293.43-31.15 293.03-30.23 292.63-29.3 292.63-27.35L292.63-27.35 292.63-19.85 298.48-19.85 298.28-24.2 302.13-24.2 302.13-12.05Z" opacity="1" transform="matrix(1,0,0,1,0,0)" fill="#000000" class="undefined-text-0" data-fill-palette-color="quaternary" id="text-0"></path></svg></g></svg></g></svg></g></svg></g><g></g></svg></g><defs></defs></svg><rect width="395.52" height="86.52077552941176" fill="none" stroke="none" visibility="hidden"></rect></g></svg></g></svg>