<svg xmlns="http://www.w3.org/2000/svg" version="1.1" xmlns:xlink="http://www.w3.org/1999/xlink" xmlns:svgjs="http://svgjs.dev/svgjs" width="1000" height="999" viewBox="0 0 1000 999"><g transform="matrix(1,0,0,1,-0.2157434402332683,-0.21552769679306039)"><svg viewBox="0 0 343 343" data-background-color="#333366" preserveAspectRatio="xMidYMid meet" height="999" width="1000" xmlns="http://www.w3.org/2000/svg" xmlns:xlink="http://www.w3.org/1999/xlink"><g id="tight-bounds" transform="matrix(1,0,0,1,0.07400000000001228,0.07400000000001228)"><svg viewBox="0 0 342.8515585177538 342.8515585177538" height="342.8515585177538" width="342.8515585177538"><g><svg></svg></g><g><svg viewBox="0 0 342.8515585177538 342.8515585177538" height="342.8515585177538" width="342.8515585177538"><g><path d="M0 171.426c0-94.676 76.75-171.426 171.426-171.426 94.676 0 171.426 76.75 171.426 171.426 0 94.676-76.75 171.426-171.426 171.426-94.676 0-171.426-76.75-171.426-171.426zM171.426 341.132c93.726 0 169.706-75.98 169.706-169.706 0-93.726-75.98-169.706-169.706-169.706-93.726 0-169.706 75.98-169.706 169.706 0 93.726 75.98 169.706 169.706 169.706z" data-fill-palette-color="tertiary" fill="#ffff33" stroke="transparent"></path><ellipse rx="164.56874808852183" ry="164.56874808852183" cx="171.4257792588769" cy="171.4257792588769" fill="#ffff33" stroke="transparent" stroke-width="0" fill-opacity="1" data-fill-palette-color="tertiary"></ellipse></g><g transform="matrix(1,0,0,1,64.84655864529836,161.88966469080273)"><svg viewBox="0 0 213.15844122715708 19.072229136148337" height="19.072229136148337" width="213.15844122715708"><g><svg viewBox="0 0 213.15844122715708 19.072229136148337" height="19.072229136148337" width="213.15844122715708"><g><svg viewBox="0 0 213.15844122715714 19.07222913614834" height="19.072229136148337" width="213.15844122715708"><g><svg viewBox="0 0 213.15844122715714 19.07222913614834" height="19.07222913614834" width="213.15844122715714"><g id="textblocktransform"><svg viewBox="0 0 213.15844122715714 19.07222913614834" height="19.07222913614834" width="213.15844122715714" id="textblock"><g><svg viewBox="0 0 213.15844122715714 19.07222913614834" height="19.07222913614834" width="213.15844122715714"><g transform="matrix(1,0,0,1,0,0)"><svg width="213.15844122715714" viewBox="3.700000047683716 -26.149999618530273 354.8299865722656 31.75" height="19.07222913614834" data-palette-color="#333366"><path d="M15.75-26.15L15.75-26.15Q25.4-26.15 31.45-23.75L31.45-23.75Q33.6-19.45 33.6-15.05L33.6-15.05Q33.6-9.4 29.75-5.25L29.75-5.25Q24.15 0.7 14.6 0.7L14.6 0.7Q11.3 0.7 5.65-0.05L5.65-0.05Q3.7-10.1 3.7-18.6L3.7-18.6Q3.7-21.55 4-25L4-25Q12.05-26.15 15.75-26.15ZM17.25-22.4L17.25-22.4Q16.35-13 16.35-8.93 16.35-4.85 16.5-2.3L16.5-2.3Q19.2-3.75 20.73-7.18 22.25-10.6 22.25-14.13 22.25-17.65 20.98-19.9 19.7-22.15 17.25-22.4ZM56.65-14.95L56.65-14.95 61.35-14.65Q62.05-14.65 62.4-14.7L62.4-14.7 60.05-10.3 59.6-10.3Q58.65-10.3 56.9-10.83 55.15-11.35 54.4-11.35L54.4-11.35Q52.35-11.35 51.15-8.7L51.15-8.7Q50.95-6.25 50.85-3.8L50.85-3.8Q53.45-3.3 54.95-3.3L54.95-3.3 55.4-3.3Q57.55-3.3 58.82-4.25 60.1-5.2 60.65-7.65L60.65-7.65 66.65-7.4Q65.9-3.1 64.65 0L64.65 0 40.1 0Q39.1-6.75 39.1-13.4 39.1-20.05 39.8-25L39.8-25 66.6-25Q65.7-19.6 65-17.4L65-17.4Q62.05-17.25 59.6-17.2L59.6-17.2Q60-18.35 60-19.35L60-19.35Q60-21.75 56.4-21.75L56.4-21.75Q55.05-21.75 53.4-21.45L53.4-21.45Q52.3-16.7 51.7-13.1L51.7-13.1Q53.7-14.95 56.65-14.95ZM90.6-22L90.6-22Q88.6-22.3 86.32-22.3 84.05-22.3 81.9-22L81.9-22Q83.25-19.7 85.1-18.25 86.95-16.8 89.77-15.38 92.6-13.95 94.37-12.75 96.15-11.55 98.3-8.8 100.45-6.05 101-3.05L101-3.05Q98.6 0.05 94.65 2.43 90.7 4.8 86.55 5.6L86.55 5.6Q83.75 5.35 79.47 4.03 75.2 2.7 73.05 2.7 70.9 2.7 68.75 4.05L68.75 4.05Q69.65 1.5 71.7-2.35L71.7-2.35 72.1-2.35Q75.3-2.35 78.12-1.35 80.95-0.35 83.27 0.65 85.6 1.65 87.02 1.65 88.45 1.65 89.1 1.45L89.1 1.45Q89.1-1.85 87.05-4L87.05-4Q85.95-5.15 85.17-5.78 84.4-6.4 82.8-7.5L82.8-7.5 81.95-8.1Q78.55-10.45 76.35-12.88 74.15-15.3 73.15-18.85L73.15-18.85Q74.75-22.4 76.3-25L76.3-25Q81.05-26.15 86.15-26.15L86.15-26.15 88.35-26.15Q92.65-26.15 98.2-24.95L98.2-24.95Q97.4-21.65 96.25-19L96.25-19Q92.05-18.7 89.75-18.7L89.75-18.7Q90.2-19.85 90.6-22ZM121.94-14.95L121.94-14.95 126.64-14.65Q127.34-14.65 127.69-14.7L127.69-14.7 125.34-10.3 124.89-10.3Q123.94-10.3 122.19-10.83 120.44-11.35 119.69-11.35L119.69-11.35Q117.64-11.35 116.44-8.7L116.44-8.7Q116.24-6.25 116.14-3.8L116.14-3.8Q118.74-3.3 120.24-3.3L120.24-3.3 120.69-3.3Q122.84-3.3 124.12-4.25 125.39-5.2 125.94-7.65L125.94-7.65 131.94-7.4Q131.19-3.1 129.94 0L129.94 0 105.39 0Q104.39-6.75 104.39-13.4 104.39-20.05 105.09-25L105.09-25 131.89-25Q130.99-19.6 130.29-17.4L130.29-17.4Q127.34-17.25 124.89-17.2L124.89-17.2Q125.29-18.35 125.29-19.35L125.29-19.35Q125.29-21.75 121.69-21.75L121.69-21.75Q120.34-21.75 118.69-21.45L118.69-21.45Q117.59-16.7 116.99-13.1L116.99-13.1Q118.99-14.95 121.94-14.95ZM165.84-16.3L165.84-16.3 165.79-14.6Q161.79-12.45 155.79-11.25L155.79-11.25Q160.09-10.1 164.09-10.1L164.09-10.1 165.14-10.1Q167.89-6.05 168.69 0L168.69 0 155.74 0Q155.24-3.5 153.72-6.03 152.19-8.55 149.99-9.45L149.99-9.45Q149.94-8.6 149.94-6.05 149.94-3.5 150.24 0L150.24 0 139.34 0Q137.89-7.25 137.89-13.48 137.89-19.7 138.59-25L138.59-25 164.69-25Q165.84-19.95 165.84-16.3ZM151.04-21.65L151.04-21.65Q150.44-17.25 150.14-13L150.14-13Q152.89-13.4 154.64-14.95L154.64-14.95Q153.69-18.3 151.04-21.65ZM193.64-21.75L193.64-21.75Q192.34-13.85 192.34-8.85 192.34-3.85 192.74 0L192.74 0 181.84 0Q180.14-7.95 180.14-17.1L180.14-17.1Q180.14-18.65 180.24-21.75L180.24-21.75Q175.99-20.5 175.04-16L175.04-16 170.09-16.3 171.89-25 205.14-25Q204.14-19.5 202.84-16L202.84-16 197.79-16.3Q197.99-17.1 197.99-17.9L197.99-17.9Q197.99-19.85 196.79-20.8 195.59-21.75 193.64-21.75ZM240.24-20.85L240.24-20.85Q240.24-11.05 238.34 0L238.34 0 226.39 0Q227.19-5.9 227.44-12.7L227.44-12.7Q224.84-14.3 221.64-14.65L221.64-14.65Q221.34-7.3 220.04 0L220.04 0 208.69 0Q209.34-4.9 209.34-11.73 209.34-18.55 208.44-25L208.44-25 221.64-25Q221.74-22.95 221.74-18.9L221.74-18.9Q224.64-18 227.49-16.45L227.49-16.45Q227.49-21.1 227.14-25L227.14-25 240.14-25Q240.24-22.2 240.24-20.85ZM248.43-0.15L248.43-0.15Q243.98-5.85 243.98-11.85 243.98-17.85 248.98-22 253.98-26.15 261.78-26.15L261.78-26.15Q265.93-26.15 270.03-24.9L270.03-24.9Q273.63-20.35 273.63-15.15L273.63-15.15Q273.63-8.6 268.28-3.75 262.93 1.1 255.33 1.1L255.33 1.1Q252.08 1.1 248.43-0.15ZM256.03-21.8L256.03-21.8Q254.28-18.8 254.28-14.75 254.28-10.7 256.06-7.28 257.83-3.85 260.93-2.35L260.93-2.35Q263.28-5.35 263.28-9.3 263.28-13.25 261.36-16.65 259.43-20.05 256.03-21.8ZM308.03-22.7L308.03-22.7Q308.03-24.05 307.63-25L307.63-25 321.88-25Q323.68-20.2 324.56-13.25 325.43-6.3 325.48 0L325.48 0 313.93 0Q313.58-9 310.98-17.35L310.98-17.35Q306.63-8.85 306.28 0L306.28 0 296.48 0Q295.18-9.8 291.48-17.4L291.48-17.4Q288.78-11.05 288.78-5.6L288.78-5.6Q288.78-2.65 289.48 0L289.48 0 277.33 0Q276.98-2.05 276.98-5.43 276.98-8.8 277.98-12.2L277.98-12.2Q281.53-13.25 284.81-15.65 288.08-18.05 289.63-20.9L289.63-20.9Q288.33-23.05 286.88-25L286.88-25 302.68-25Q304.58-19.85 305.53-13.8L305.53-13.8Q308.03-18.45 308.03-22.7ZM348.53-14.95L348.53-14.95 353.23-14.65Q353.93-14.65 354.28-14.7L354.28-14.7 351.93-10.3 351.48-10.3Q350.53-10.3 348.78-10.83 347.03-11.35 346.28-11.35L346.28-11.35Q344.23-11.35 343.03-8.7L343.03-8.7Q342.83-6.25 342.73-3.8L342.73-3.8Q345.33-3.3 346.83-3.3L346.83-3.3 347.28-3.3Q349.43-3.3 350.7-4.25 351.98-5.2 352.53-7.65L352.53-7.65 358.53-7.4Q357.78-3.1 356.53 0L356.53 0 331.98 0Q330.98-6.75 330.98-13.4 330.98-20.05 331.68-25L331.68-25 358.48-25Q357.58-19.6 356.88-17.4L356.88-17.4Q353.93-17.25 351.48-17.2L351.48-17.2Q351.88-18.35 351.88-19.35L351.88-19.35Q351.88-21.75 348.28-21.75L348.28-21.75Q346.93-21.75 345.28-21.45L345.28-21.45Q344.18-16.7 343.58-13.1L343.58-13.1Q345.58-14.95 348.53-14.95Z" opacity="1" transform="matrix(1,0,0,1,0,0)" fill="#333366" class="undefined-text-0" data-fill-palette-color="quaternary" id="text-0"></path></svg></g></svg></g></svg></g></svg></g><g></g></svg></g></svg></g></svg></g></svg></g><defs></defs></svg><rect width="342.8515585177538" height="342.8515585177538" fill="none" stroke="none" visibility="hidden"></rect></g></svg></g></svg>