<svg xmlns="http://www.w3.org/2000/svg" version="1.1" xmlns:xlink="http://www.w3.org/1999/xlink" xmlns:svgjs="http://svgjs.dev/svgjs" width="1000" height="1000" viewBox="0 0 1000 1000"><rect width="1000" height="1000" fill="#ffffff"></rect><g transform="matrix(0.7,0,0,0.7,149.57690283297728,356.3459251064178)"><svg viewBox="0 0 396 163" data-background-color="#ffffff" preserveAspectRatio="xMidYMid meet" height="411" width="1000" xmlns="http://www.w3.org/2000/svg" xmlns:xlink="http://www.w3.org/1999/xlink"><g id="tight-bounds" transform="matrix(1,0,0,1,0.24014044426814962,-0.11100379682343942)"><svg viewBox="0 0 395.52 163.22200759364688" height="163.22200759364688" width="395.52"><g><svg viewBox="0 0 395.52 163.22200759364688" height="163.22200759364688" width="395.52"><g transform="matrix(1,0,0,1,0,84.01577998918037)"><svg viewBox="0 0 395.52 79.20622760446652" height="79.20622760446652" width="395.52"><g id="textblocktransform"><svg viewBox="0 0 395.52 79.20622760446652" height="79.20622760446652" width="395.52" id="textblock"><g><svg viewBox="0 0 395.52 79.20622760446652" height="79.20622760446652" width="395.52"><g transform="matrix(1,0,0,1,0,0)"><svg width="395.52" viewBox="0.48794618248939514 -20.416095733642578 236.84063720703125 47.429351806640625" height="79.20622760446652" data-palette-color="#ffa458"><path d="M9.183 15.162l-7.678-1.678c-0.319-0.07-0.583-0.254-0.791-0.552-0.208-0.298-0.273-0.626-0.194-0.984v0l6.839-31.281c0.078-0.358 0.274-0.629 0.587-0.814 0.313-0.184 0.629-0.241 0.949-0.171v0l23.27 5.088c0.358 0.078 0.638 0.266 0.84 0.562 0.208 0.298 0.273 0.626 0.194 0.984v0l-1.339 6.125c-0.071 0.326-0.265 0.587-0.581 0.784-0.311 0.205-0.646 0.268-1.004 0.19v0l-14.341-3.135-1.162 5.314 13.374 2.924c0.358 0.078 0.638 0.266 0.839 0.563 0.208 0.298 0.273 0.623 0.197 0.974v0l-1.331 6.086c-0.077 0.352-0.272 0.62-0.585 0.804-0.307 0.185-0.639 0.239-0.997 0.161v0l-13.375-2.924-2.185 9.994c-0.078 0.358-0.264 0.631-0.558 0.819-0.294 0.188-0.616 0.244-0.968 0.167zM46.392 22.349v0c-3.126-0.462-5.768-1.35-7.925-2.667-2.151-1.315-3.74-3.056-4.768-5.222-1.034-2.168-1.381-4.726-1.041-7.674v0c0.17-1.377 0.361-2.79 0.576-4.242 0.214-1.451 0.443-2.89 0.688-4.316v0c0.521-2.888 1.591-5.227 3.209-7.016 1.613-1.797 3.653-3.039 6.12-3.726 2.466-0.68 5.245-0.792 8.338-0.336v0c3.067 0.453 5.682 1.361 7.846 2.725 2.163 1.371 3.764 3.15 4.802 5.339 1.046 2.183 1.387 4.73 1.025 7.642v0c-0.145 1.441-0.325 2.887-0.539 4.337-0.214 1.451-0.456 2.857-0.724 4.22v0c-0.532 2.92-1.603 5.269-3.214 7.046-1.61 1.777-3.638 2.984-6.084 3.62-2.439 0.637-5.209 0.727-8.309 0.27zM47.619 14.039v0c1.372 0.203 2.558-0.047 3.558-0.749 1.006-0.701 1.661-1.962 1.964-3.784v0c0.266-1.389 0.496-2.744 0.69-4.062 0.196-1.326 0.365-2.675 0.507-4.05v0c0.145-1.212 0.071-2.24-0.221-3.085-0.294-0.839-0.764-1.491-1.41-1.957-0.647-0.459-1.428-0.757-2.345-0.892v0c-0.91-0.134-1.751-0.077-2.522 0.174-0.772 0.257-1.421 0.744-1.944 1.461-0.518 0.725-0.883 1.689-1.094 2.891v0c-0.235 1.36-0.45 2.703-0.646 4.029-0.195 1.319-0.379 2.68-0.552 4.083v0c-0.204 1.837 0.065 3.234 0.806 4.193 0.741 0.959 1.811 1.541 3.209 1.748zM83.062 26.255v0c-3.151-0.233-5.851-0.928-8.098-2.083-2.241-1.155-3.953-2.776-5.135-4.863-1.189-2.087-1.721-4.613-1.595-7.578v0c0.069-1.385 0.158-2.809 0.266-4.272 0.108-1.463 0.232-2.914 0.372-4.354v0c0.31-2.918 1.207-5.329 2.691-7.232 1.478-1.909 3.423-3.296 5.833-4.16 2.41-0.858 5.174-1.171 8.292-0.941v0c3.092 0.229 5.766 0.945 8.023 2.148 2.257 1.21 3.983 2.868 5.177 4.976 1.202 2.101 1.727 4.617 1.578 7.547v0c-0.04 1.448-0.115 2.903-0.223 4.365-0.108 1.463-0.247 2.883-0.416 4.261v0c-0.319 2.951-1.216 5.372-2.693 7.261-1.477 1.889-3.412 3.24-5.805 4.053-2.386 0.813-5.142 1.104-8.267 0.872zM83.682 17.878v0c1.383 0.102 2.547-0.233 3.494-1.005 0.953-0.772 1.514-2.077 1.683-3.916v0c0.164-1.405 0.295-2.772 0.394-4.103 0.099-1.336 0.169-2.695 0.212-4.075v0c0.057-1.219-0.092-2.24-0.446-3.061-0.354-0.815-0.87-1.431-1.548-1.85-0.678-0.411-1.479-0.651-2.403-0.719v0c-0.917-0.068-1.752 0.051-2.503 0.356-0.752 0.312-1.363 0.845-1.833 1.599-0.464 0.761-0.758 1.749-0.881 2.963v0c-0.135 1.374-0.252 2.729-0.351 4.066-0.098 1.33-0.183 2.701-0.254 4.112v0c-0.07 1.847 0.3 3.221 1.108 4.123 0.809 0.902 1.918 1.405 3.328 1.51zM120.058 27.013l-13.79-0.028c-0.327-0.001-0.623-0.125-0.889-0.372-0.266-0.247-0.399-0.554-0.398-0.921v0l0.065-32.02c0.001-0.367 0.135-0.673 0.402-0.919 0.267-0.246 0.564-0.369 0.891-0.368v0l13.539 0.028c3.2 0.007 5.969 0.532 8.307 1.577 2.338 1.038 4.178 2.565 5.521 4.581 1.349 2.016 2.071 4.488 2.165 7.414v0c0.064 1.42 0.095 2.674 0.092 3.761-0.002 1.087-0.038 2.323-0.107 3.709v0c-0.14 3.093-0.845 5.645-2.116 7.656-1.277 2.004-3.07 3.49-5.379 4.459-2.309 0.969-5.076 1.45-8.303 1.443zM115.661 0.804l-0.036 17.8 4.2 0.009c1.087 0.002 2.01-0.179 2.771-0.545 0.761-0.358 1.355-0.924 1.784-1.696 0.428-0.772 0.66-1.769 0.696-2.989v0c0.035-0.96 0.064-1.817 0.085-2.569 0.015-0.76 0.016-1.52 0.005-2.28-0.018-0.753-0.043-1.593-0.075-2.521v0c-0.063-1.813-0.58-3.131-1.552-3.953-0.965-0.829-2.271-1.245-3.918-1.248v0zM159.384 25.38l-16.219 1.147c-0.326 0.023-0.63-0.079-0.914-0.306-0.283-0.227-0.438-0.524-0.464-0.889v0l-2.259-31.941c-0.026-0.366 0.085-0.681 0.334-0.945 0.249-0.265 0.536-0.409 0.861-0.432v0l15.731-1.113c2.986-0.211 5.461 0.011 7.426 0.668 1.964 0.65 3.457 1.684 4.48 3.101 1.029 1.411 1.62 3.2 1.773 5.368v0c0.079 1.117-0.073 2.127-0.457 3.03-0.384 0.903-0.868 1.665-1.453 2.288-0.585 0.616-1.147 1.077-1.686 1.383v0c1.323 0.468 2.507 1.333 3.552 2.596 1.052 1.262 1.638 2.748 1.759 4.457v0c0.163 2.301-0.219 4.279-1.144 5.935-0.926 1.649-2.338 2.952-4.235 3.909-1.897 0.963-4.258 1.544-7.085 1.744zM151.498 11.963l0.457 6.464 5.766-0.408c1.117-0.079 1.918-0.477 2.402-1.192 0.478-0.709 0.688-1.476 0.629-2.3v0c-0.06-0.851-0.392-1.576-0.996-2.176-0.604-0.606-1.435-0.871-2.492-0.796v0zM150.567-1.204l0.419 5.925 5.277-0.373c1.051-0.074 1.801-0.425 2.251-1.052 0.45-0.627 0.647-1.336 0.591-2.127v0c-0.056-0.791-0.351-1.466-0.885-2.022-0.534-0.557-1.326-0.798-2.377-0.724v0zM203.809 20.055l-24.373 3.408c-0.324 0.045-0.634-0.036-0.932-0.243-0.298-0.207-0.473-0.493-0.524-0.856v0l-4.434-31.711c-0.051-0.363 0.039-0.685 0.268-0.967 0.23-0.281 0.507-0.444 0.83-0.489v0l23.987-3.355c0.357-0.05 0.684 0.029 0.982 0.237 0.292 0.208 0.463 0.494 0.514 0.857v0l0.807 5.774c0.045 0.324-0.042 0.635-0.263 0.935-0.228 0.294-0.52 0.467-0.877 0.516v0l-15.122 2.115 0.678 4.853 14.043-1.964c0.363-0.051 0.691 0.028 0.983 0.236 0.298 0.207 0.472 0.489 0.522 0.846v0l0.739 5.289c0.05 0.357-0.04 0.675-0.27 0.956-0.222 0.287-0.515 0.456-0.878 0.507v0l-14.043 1.964 0.691 4.942 15.509-2.169c0.363-0.051 0.691 0.035 0.985 0.256 0.301 0.227 0.476 0.519 0.526 0.875v0l0.8 5.725c0.051 0.363-0.039 0.685-0.268 0.966-0.223 0.28-0.517 0.446-0.88 0.497zM236.249 13.416l-24.098 4.992c-0.32 0.066-0.635 0.006-0.947-0.182-0.311-0.187-0.504-0.461-0.578-0.819v0l-6.495-31.355c-0.074-0.359-0.006-0.686 0.205-0.982 0.211-0.296 0.477-0.477 0.796-0.543v0l23.717-4.912c0.353-0.073 0.684-0.016 0.995 0.171 0.305 0.189 0.494 0.463 0.569 0.822v0l1.183 5.709c0.066 0.32-0.001 0.637-0.202 0.95-0.208 0.309-0.489 0.5-0.841 0.573v0l-14.953 3.097 0.994 4.798 13.885-2.876c0.359-0.074 0.691-0.017 0.996 0.172 0.311 0.187 0.503 0.457 0.576 0.81v0l1.083 5.229c0.073 0.353 0.004 0.677-0.207 0.972-0.203 0.301-0.484 0.488-0.843 0.563v0l-13.885 2.876 1.012 4.886 15.334-3.176c0.359-0.074 0.692-0.011 1 0.191 0.315 0.207 0.509 0.487 0.582 0.839v0l1.173 5.66c0.074 0.359 0.006 0.686-0.206 0.982-0.205 0.294-0.486 0.479-0.845 0.553z" opacity="1" transform="matrix(1,0,0,1,0,0)" fill="#000000" class="undefined-text-0" data-fill-palette-color="primary" id="text-0"></path></svg></g></svg></g></svg></g></svg></g><g transform="matrix(1,0,0,1,166.45250542132644,0)"><svg viewBox="0 0 62.614989157347104 79.20622760446652" height="79.20622760446652" width="62.614989157347104"><g><svg xmlns="http://www.w3.org/2000/svg" xmlns:xlink="http://www.w3.org/1999/xlink" version="1.1" x="0" y="0" viewBox="15.019000053405762 6 69.96200561523438 88.5" enable-background="new 0 0 100 100" xml:space="preserve" height="79.20622760446652" width="62.614989157347104" class="icon-icon-0" data-fill-palette-color="accent" id="icon-0"><g fill="#ba3b0a" data-fill-palette-color="accent"><path d="M84.981 41.475C84.981 20.504 69.32 6 50 6S15.019 20.504 15.019 41.473c0 11.259 4.522 25.443 11.693 36.178C32.206 90.997 41.62 94.5 49.982 94.5c8.318 0 17.674-3.473 23.18-16.648C80.407 67.094 84.981 52.801 84.981 41.475zM49.982 93.5c-12.3 0-26.961-7.974-26.961-45.964 0-9.29 0.983-14.023 3.519-16.418 0.1 0.375 0.226 0.762 0.416 1.178 3.4 7.519 9.306 10.615 14.117 11.865-0.691-0.079-1.398-0.11-2.119-0.041-0.482 0.048-0.963 0.13-1.434 0.241-2.399 0.579-4.344 1.978-5.206 3.743-0.004 0.007-0.004 0.014-0.009 0.023 0 0.002-0.002 0.007-0.002 0.009-0.038 0.077-0.061 0.163-0.05 0.25-0.002 0.003 0.002 0.008 0.002 0.013 0 0.004 0 0.009-0.002 0.013 0.039 0.396 0.504 0.674 1.043 0.623 0.423-0.042 0.681-0.29 0.868-0.561 0.011-0.021 0.025-0.036 0.039-0.056 0.8-1.269 2.092-2.267 3.822-2.681 0.348-0.086 0.708-0.144 1.067-0.181 1.418-0.137 2.755 0.192 3.944 0.736 0.025 0.011 0.047 0.021 0.068 0.03 0.251 0.122 0.491 0.25 0.814 0.219 0.536-0.051 0.938-0.414 0.905-0.81-0.018-0.174-0.12-0.324-0.274-0.437-0.034-0.029-0.065-0.058-0.111-0.084-0.437-0.254-0.913-0.456-1.407-0.626 3.322 0.585 5.745 0.338 5.745 0.338-3.833-2.125-5.819-5-6.751-7.915 4.449 4.474 10.232 6.46 14.973 7.326-0.504 0.172-0.989 0.375-1.433 0.634-0.045 0.027-0.077 0.055-0.113 0.086-0.151 0.111-0.253 0.261-0.271 0.434-0.036 0.397 0.367 0.76 0.905 0.811 0.321 0.031 0.563-0.097 0.814-0.219 0.018-0.01 0.043-0.019 0.068-0.03 1.189-0.544 2.524-0.873 3.944-0.736 0.359 0.037 0.719 0.097 1.067 0.181 1.73 0.414 3.021 1.412 3.822 2.681 0.014 0.018 0.027 0.035 0.039 0.056 0.188 0.271 0.445 0.519 0.868 0.561 0.536 0.051 1.002-0.227 1.043-0.623-0.002-0.004-0.002-0.009-0.002-0.013 0-0.005 0.004-0.009 0.002-0.012 0.011-0.088-0.012-0.174-0.05-0.253 0-0.002-0.005-0.007-0.005-0.009-0.004-0.009-0.004-0.016-0.009-0.022-0.57-1.171-1.625-2.175-2.968-2.89 0.641-0.015 1-0.044 1-0.044-8.686-3.855-9.783-10.167-9.195-14.738 0.346 0.779 0.841 1.638 1.5 2.583 6.366 9.109 13.999 12.645 18.915 14.023 0.001 0.249 0.005 0.489 0.005 0.744C76.941 85.526 62.281 93.5 49.982 93.5z" fill="#000000" data-fill-palette-color="accent"></path><path d="M50 72.755c-6.353 0-11.502-9.256-11.502-1.624 0 7.633 5.149 7.049 11.502 7.049 6.355 0 11.504 0.583 11.504-7.049C61.504 63.499 56.355 72.755 50 72.755z" fill="#000000" data-fill-palette-color="accent"></path><path d="M61.108 50.559c-4.156 0-7.411 2.029-7.411 4.62 0 0.428 0.093 0.749 0.285 0.981 0.141 0.171 0.406 0.374 0.872 0.374 0.52 0 1.167-0.245 1.986-0.555 1.188-0.45 2.667-1.01 4.269-1.01 1.6 0 3.077 0.56 4.265 1.01 0.819 0.31 1.465 0.555 1.985 0.555 0.348 0 1.157-0.132 1.157-1.355C68.515 52.588 65.262 50.559 61.108 50.559zM67.463 55.52c-0.007 0.004-0.04 0.014-0.105 0.014-0.337 0-0.965-0.238-1.631-0.49-1.197-0.454-2.836-1.075-4.619-1.075-1.785 0-3.425 0.621-4.623 1.075-0.666 0.252-1.295 0.49-1.632 0.49-0.065 0-0.098-0.01-0.101-0.01 0-0.001-0.056-0.072-0.056-0.345 0-1.654 2.089-3.088 4.826-3.499 0.261 0.826 1.023 1.429 1.94 1.429 0.87 0 1.597-0.543 1.894-1.307 2.401 0.527 4.158 1.859 4.158 3.376C67.515 55.446 67.461 55.52 67.463 55.52z" fill="#000000" data-fill-palette-color="accent"></path><path d="M43.162 56.244c0.819 0.31 1.466 0.555 1.985 0.555 0.348 0 1.156-0.132 1.156-1.354 0-2.593-3.254-4.625-7.409-4.625-4.154 0-7.409 2.032-7.409 4.625 0 0.427 0.093 0.748 0.284 0.98 0.141 0.17 0.406 0.374 0.872 0.374 0.52 0 1.167-0.245 1.985-0.555 1.188-0.45 2.667-1.011 4.268-1.011C40.495 55.233 41.974 55.794 43.162 56.244zM34.271 55.309c-0.666 0.252-1.294 0.49-1.631 0.49-0.065 0-0.097-0.01-0.1-0.01 0 0-0.056-0.072-0.056-0.344 0-1.588 1.918-2.976 4.487-3.45 0.278 0.801 1.026 1.378 1.92 1.378 0.896 0 1.643-0.578 1.921-1.379 2.571 0.474 4.49 1.862 4.49 3.451 0 0.266-0.053 0.34-0.051 0.34-0.007 0.004-0.04 0.014-0.104 0.014-0.336 0-0.965-0.238-1.631-0.49-1.198-0.454-2.838-1.076-4.623-1.076C37.109 54.233 35.469 54.855 34.271 55.309z" fill="#000000" data-fill-palette-color="accent"></path></g></svg></g></svg></g><g></g></svg></g><defs></defs></svg><rect width="395.52" height="163.22200759364688" fill="none" stroke="none" visibility="hidden"></rect></g></svg></g></svg>